<svg width="1200" height="630" viewBox="0 0 1200 630" fill="none" xmlns="http://www.w3.org/2000/svg">
  <defs>
    <linearGradient id="bgGradient" x1="0%" y1="0%" x2="100%" y2="100%">
      <stop offset="0%" style="stop-color:#EFF6FF;stop-opacity:1" />
      <stop offset="100%" style="stop-color:#DBEAFE;stop-opacity:1" />
    </linearGradient>
    <linearGradient id="logoGradient" x1="0%" y1="0%" x2="100%" y2="100%">
      <stop offset="0%" style="stop-color:#5DADE2;stop-opacity:1" />
      <stop offset="100%" style="stop-color:#1565C0;stop-opacity:1" />
    </linearGradient>
  </defs>

  <!-- Background -->
  <rect width="1200" height="630" fill="url(#bgGradient)"/>

  <!-- Logo (scaled up) -->
  <g transform="translate(100, 150) scale(0.8)">
    <!-- Hexagonal border -->
    <path d="M256 50L450 150V362L256 462L62 362V150L256 50Z" stroke="url(#logoGradient)" stroke-width="45" fill="none"/>

    <!-- House outline -->
    <g transform="translate(120, 140)">
      <path d="M0 60L90 0L180 60" stroke="url(#logoGradient)" stroke-width="30" fill="none" stroke-linejoin="miter"/>
      <rect x="155" y="20" width="25" height="40" fill="url(#logoGradient)" rx="3"/>
      <path d="M10 60L10 200L170 200L170 60" stroke="url(#logoGradient)" stroke-width="30" fill="none" stroke-linejoin="miter"/>
      <rect x="25" y="130" width="35" height="65" fill="url(#logoGradient)" rx="3"/>
      <line x1="75" y1="100" x2="155" y2="100" stroke="url(#logoGradient)" stroke-width="12" stroke-linecap="round"/>
      <line x1="75" y1="130" x2="155" y2="130" stroke="url(#logoGradient)" stroke-width="12" stroke-linecap="round"/>
      <line x1="75" y1="160" x2="155" y2="160" stroke="url(#logoGradient)" stroke-width="12" stroke-linecap="round"/>
    </g>

    <!-- Fountain pen nib -->
    <g transform="translate(350, 340)">
      <path d="M0 0C15 -8 30 -12 50 -15L70 30C70 30 50 50 30 65L0 0Z" fill="url(#logoGradient)"/>
      <path d="M25 65L35 65L30 85L25 65Z" fill="url(#logoGradient)"/>
      <circle cx="30" cy="70" r="6" fill="#FFFFFF"/>
      <circle cx="30" cy="70" r="3" fill="url(#logoGradient)"/>
      <line x1="30" y1="50" x2="30" y2="85" stroke="url(#logoGradient)" stroke-width="2"/>
    </g>
  </g>

  <!-- Main Heading -->
  <text x="550" y="250" font-family="system-ui, -apple-system, sans-serif" font-size="64" font-weight="bold" fill="#1E293B">
    AI Property Writer
  </text>

  <!-- Tagline -->
  <text x="550" y="320" font-family="system-ui, -apple-system, sans-serif" font-size="36" font-weight="600" fill="#3B82F6">
    3 Variations + Social Posts + Market Data
  </text>

  <!-- Feature List -->
  <g transform="translate(550, 370)">
    <text y="0" font-family="system-ui, -apple-system, sans-serif" font-size="28" fill="#475569">
      ✨ 3 listing variations every time
    </text>
    <text y="45" font-family="system-ui, -apple-system, sans-serif" font-size="28" fill="#475569">
      📱 Instagram + Facebook posts included
    </text>
    <text y="90" font-family="system-ui, -apple-system, sans-serif" font-size="28" fill="#475569">
      📊 Real-time market intelligence (Pro)
    </text>
  </g>

  <!-- URL -->
  <text x="600" y="580" font-family="system-ui, -apple-system, sans-serif" font-size="24" font-weight="500" fill="#64748B" text-anchor="middle">
    www.aipropertywriter.com
  </text>
</svg>
